<mxfile host="app.diagrams.net" modified="2021-04-06T00:40:24.841Z" agent="5.0 (Windows NT 10.0; Win64; x64) AppleWebKit/537.36 (KHTML, like Gecko) Chrome/89.0.4389.114 Safari/537.36" etag="1Q6jtiNA2I0qaFEaSFaZ" version="14.5.7" type="github">
  <diagram id="C5RBs43oDa-KdzZeNtuy" name="Page-1">
    <mxGraphModel dx="852" dy="433" grid="1" gridSize="10" guides="1" tooltips="1" connect="1" arrows="1" fold="1" page="1" pageScale="1" pageWidth="850" pageHeight="1100" math="0" shadow="0">
      <root>
        <mxCell id="WIyWlLk6GJQsqaUBKTNV-0" />
        <mxCell id="WIyWlLk6GJQsqaUBKTNV-1" parent="WIyWlLk6GJQsqaUBKTNV-0" />
        <mxCell id="7TQkR5zAoFKFUAtrguTI-4" value="AircraftModel" style="swimlane;fontStyle=0;childLayout=stackLayout;horizontal=1;startSize=26;fillColor=none;horizontalStack=0;resizeParent=1;resizeParentMax=0;resizeLast=0;collapsible=1;marginBottom=0;" vertex="1" parent="WIyWlLk6GJQsqaUBKTNV-1">
          <mxGeometry x="20" y="214" width="140" height="52" as="geometry" />
        </mxCell>
        <mxCell id="7TQkR5zAoFKFUAtrguTI-5" value="+ name: string" style="text;strokeColor=none;fillColor=none;align=left;verticalAlign=top;spacingLeft=4;spacingRight=4;overflow=hidden;rotatable=0;points=[[0,0.5],[1,0.5]];portConstraint=eastwest;" vertex="1" parent="7TQkR5zAoFKFUAtrguTI-4">
          <mxGeometry y="26" width="140" height="26" as="geometry" />
        </mxCell>
        <mxCell id="7TQkR5zAoFKFUAtrguTI-8" value="Manufacturer" style="swimlane;fontStyle=0;childLayout=stackLayout;horizontal=1;startSize=26;fillColor=none;horizontalStack=0;resizeParent=1;resizeParentMax=0;resizeLast=0;collapsible=1;marginBottom=0;" vertex="1" parent="WIyWlLk6GJQsqaUBKTNV-1">
          <mxGeometry x="150" y="480" width="140" height="52" as="geometry" />
        </mxCell>
        <mxCell id="7TQkR5zAoFKFUAtrguTI-9" value="+ name: string" style="text;strokeColor=none;fillColor=none;align=left;verticalAlign=top;spacingLeft=4;spacingRight=4;overflow=hidden;rotatable=0;points=[[0,0.5],[1,0.5]];portConstraint=eastwest;" vertex="1" parent="7TQkR5zAoFKFUAtrguTI-8">
          <mxGeometry y="26" width="140" height="26" as="geometry" />
        </mxCell>
        <mxCell id="7TQkR5zAoFKFUAtrguTI-16" value="Status" style="swimlane;fontStyle=0;childLayout=stackLayout;horizontal=1;startSize=26;fillColor=none;horizontalStack=0;resizeParent=1;resizeParentMax=0;resizeLast=0;collapsible=1;marginBottom=0;" vertex="1" parent="WIyWlLk6GJQsqaUBKTNV-1">
          <mxGeometry x="700" y="280" width="140" height="78" as="geometry" />
        </mxCell>
        <mxCell id="7TQkR5zAoFKFUAtrguTI-17" value="+ status_option: string" style="text;strokeColor=none;fillColor=none;align=left;verticalAlign=top;spacingLeft=4;spacingRight=4;overflow=hidden;rotatable=0;points=[[0,0.5],[1,0.5]];portConstraint=eastwest;" vertex="1" parent="7TQkR5zAoFKFUAtrguTI-16">
          <mxGeometry y="26" width="140" height="26" as="geometry" />
        </mxCell>
        <mxCell id="7TQkR5zAoFKFUAtrguTI-18" value="+ isDiplay: boolean" style="text;strokeColor=none;fillColor=none;align=left;verticalAlign=top;spacingLeft=4;spacingRight=4;overflow=hidden;rotatable=0;points=[[0,0.5],[1,0.5]];portConstraint=eastwest;" vertex="1" parent="7TQkR5zAoFKFUAtrguTI-16">
          <mxGeometry y="52" width="140" height="26" as="geometry" />
        </mxCell>
        <mxCell id="7TQkR5zAoFKFUAtrguTI-20" value="Image" style="swimlane;fontStyle=0;childLayout=stackLayout;horizontal=1;startSize=26;fillColor=none;horizontalStack=0;resizeParent=1;resizeParentMax=0;resizeLast=0;collapsible=1;marginBottom=0;" vertex="1" parent="WIyWlLk6GJQsqaUBKTNV-1">
          <mxGeometry x="10" y="358" width="140" height="52" as="geometry" />
        </mxCell>
        <mxCell id="7TQkR5zAoFKFUAtrguTI-21" value="+ image: ImageField" style="text;strokeColor=none;fillColor=none;align=left;verticalAlign=top;spacingLeft=4;spacingRight=4;overflow=hidden;rotatable=0;points=[[0,0.5],[1,0.5]];portConstraint=eastwest;" vertex="1" parent="7TQkR5zAoFKFUAtrguTI-20">
          <mxGeometry y="26" width="140" height="26" as="geometry" />
        </mxCell>
        <mxCell id="7TQkR5zAoFKFUAtrguTI-27" value="Images of Aircraft" style="endArrow=open;html=1;endSize=12;startArrow=diamondThin;startSize=14;startFill=0;edgeStyle=orthogonalEdgeStyle;entryX=0.329;entryY=0.962;entryDx=0;entryDy=0;entryPerimeter=0;exitX=0.393;exitY=0.038;exitDx=0;exitDy=0;exitPerimeter=0;" edge="1" parent="WIyWlLk6GJQsqaUBKTNV-1" source="7TQkR5zAoFKFUAtrguTI-20" target="7TQkR5zAoFKFUAtrguTI-5">
          <mxGeometry relative="1" as="geometry">
            <mxPoint x="76" y="260" as="sourcePoint" />
            <mxPoint x="490" y="190" as="targetPoint" />
            <Array as="points">
              <mxPoint x="65" y="310" />
              <mxPoint x="66" y="310" />
            </Array>
          </mxGeometry>
        </mxCell>
        <mxCell id="7TQkR5zAoFKFUAtrguTI-28" value="0..n" style="edgeLabel;resizable=0;html=1;align=left;verticalAlign=top;" connectable="0" vertex="1" parent="7TQkR5zAoFKFUAtrguTI-27">
          <mxGeometry x="-1" relative="1" as="geometry">
            <mxPoint x="14.98" y="-22.98" as="offset" />
          </mxGeometry>
        </mxCell>
        <mxCell id="7TQkR5zAoFKFUAtrguTI-29" value="1" style="edgeLabel;resizable=0;html=1;align=right;verticalAlign=top;" connectable="0" vertex="1" parent="7TQkR5zAoFKFUAtrguTI-27">
          <mxGeometry x="1" relative="1" as="geometry">
            <mxPoint x="23.939999999999998" y="-1" as="offset" />
          </mxGeometry>
        </mxCell>
        <mxCell id="7TQkR5zAoFKFUAtrguTI-34" value="ClassModel" style="swimlane;fontStyle=0;childLayout=stackLayout;horizontal=1;startSize=26;fillColor=none;horizontalStack=0;resizeParent=1;resizeParentMax=0;resizeLast=0;collapsible=1;marginBottom=0;" vertex="1" parent="WIyWlLk6GJQsqaUBKTNV-1">
          <mxGeometry x="330" y="10" width="190" height="156" as="geometry" />
        </mxCell>
        <mxCell id="7TQkR5zAoFKFUAtrguTI-35" value="+ active: boolean" style="text;strokeColor=none;fillColor=none;align=left;verticalAlign=top;spacingLeft=4;spacingRight=4;overflow=hidden;rotatable=0;points=[[0,0.5],[1,0.5]];portConstraint=eastwest;" vertex="1" parent="7TQkR5zAoFKFUAtrguTI-34">
          <mxGeometry y="26" width="190" height="26" as="geometry" />
        </mxCell>
        <mxCell id="7TQkR5zAoFKFUAtrguTI-36" value="+ Created: DateTime" style="text;strokeColor=none;fillColor=none;align=left;verticalAlign=top;spacingLeft=4;spacingRight=4;overflow=hidden;rotatable=0;points=[[0,0.5],[1,0.5]];portConstraint=eastwest;" vertex="1" parent="7TQkR5zAoFKFUAtrguTI-34">
          <mxGeometry y="52" width="190" height="26" as="geometry" />
        </mxCell>
        <mxCell id="7TQkR5zAoFKFUAtrguTI-38" value="+ Modified: DateTime" style="text;strokeColor=none;fillColor=none;align=left;verticalAlign=top;spacingLeft=4;spacingRight=4;overflow=hidden;rotatable=0;points=[[0,0.5],[1,0.5]];portConstraint=eastwest;" vertex="1" parent="7TQkR5zAoFKFUAtrguTI-34">
          <mxGeometry y="78" width="190" height="26" as="geometry" />
        </mxCell>
        <mxCell id="7TQkR5zAoFKFUAtrguTI-39" value="+ UserCreated: String" style="text;strokeColor=none;fillColor=none;align=left;verticalAlign=top;spacingLeft=4;spacingRight=4;overflow=hidden;rotatable=0;points=[[0,0.5],[1,0.5]];portConstraint=eastwest;" vertex="1" parent="7TQkR5zAoFKFUAtrguTI-34">
          <mxGeometry y="104" width="190" height="26" as="geometry" />
        </mxCell>
        <mxCell id="7TQkR5zAoFKFUAtrguTI-40" value="+ UserModified: String" style="text;strokeColor=none;fillColor=none;align=left;verticalAlign=top;spacingLeft=4;spacingRight=4;overflow=hidden;rotatable=0;points=[[0,0.5],[1,0.5]];portConstraint=eastwest;" vertex="1" parent="7TQkR5zAoFKFUAtrguTI-34">
          <mxGeometry y="130" width="190" height="26" as="geometry" />
        </mxCell>
        <mxCell id="7TQkR5zAoFKFUAtrguTI-41" value="Extends" style="endArrow=block;endSize=16;endFill=0;html=1;entryX=0.521;entryY=1.038;entryDx=0;entryDy=0;entryPerimeter=0;exitX=0.563;exitY=-0.023;exitDx=0;exitDy=0;exitPerimeter=0;" edge="1" parent="WIyWlLk6GJQsqaUBKTNV-1" source="7TQkR5zAoFKFUAtrguTI-62" target="7TQkR5zAoFKFUAtrguTI-40">
          <mxGeometry width="160" relative="1" as="geometry">
            <mxPoint x="429" y="278" as="sourcePoint" />
            <mxPoint x="490" y="290" as="targetPoint" />
          </mxGeometry>
        </mxCell>
        <mxCell id="7TQkR5zAoFKFUAtrguTI-42" value="Extends" style="endArrow=block;endSize=16;endFill=0;html=1;entryX=0;entryY=0.5;entryDx=0;entryDy=0;exitX=0.993;exitY=0;exitDx=0;exitDy=0;exitPerimeter=0;" edge="1" parent="WIyWlLk6GJQsqaUBKTNV-1" source="7TQkR5zAoFKFUAtrguTI-5" target="7TQkR5zAoFKFUAtrguTI-40">
          <mxGeometry width="160" relative="1" as="geometry">
            <mxPoint x="210" y="220" as="sourcePoint" />
            <mxPoint x="370" y="220" as="targetPoint" />
          </mxGeometry>
        </mxCell>
        <mxCell id="7TQkR5zAoFKFUAtrguTI-43" value="Extends" style="endArrow=block;endSize=16;endFill=0;html=1;exitX=0.386;exitY=-0.013;exitDx=0;exitDy=0;exitPerimeter=0;entryX=1;entryY=0.5;entryDx=0;entryDy=0;" edge="1" parent="WIyWlLk6GJQsqaUBKTNV-1" source="7TQkR5zAoFKFUAtrguTI-16" target="7TQkR5zAoFKFUAtrguTI-39">
          <mxGeometry width="160" relative="1" as="geometry">
            <mxPoint x="550" y="200" as="sourcePoint" />
            <mxPoint x="710" y="200" as="targetPoint" />
          </mxGeometry>
        </mxCell>
        <mxCell id="7TQkR5zAoFKFUAtrguTI-44" value="Extends" style="endArrow=block;endSize=16;endFill=0;html=1;entryX=0.853;entryY=1.077;entryDx=0;entryDy=0;entryPerimeter=0;" edge="1" parent="WIyWlLk6GJQsqaUBKTNV-1" target="7TQkR5zAoFKFUAtrguTI-40">
          <mxGeometry x="-0.3566" y="-17" width="160" relative="1" as="geometry">
            <mxPoint x="628.0772124012681" y="476" as="sourcePoint" />
            <mxPoint x="660" y="266" as="targetPoint" />
            <mxPoint as="offset" />
          </mxGeometry>
        </mxCell>
        <mxCell id="7TQkR5zAoFKFUAtrguTI-45" value="Extends" style="endArrow=block;endSize=16;endFill=0;html=1;entryX=0.263;entryY=1.154;entryDx=0;entryDy=0;entryPerimeter=0;exitX=0.457;exitY=0.019;exitDx=0;exitDy=0;exitPerimeter=0;" edge="1" parent="WIyWlLk6GJQsqaUBKTNV-1" source="7TQkR5zAoFKFUAtrguTI-8" target="7TQkR5zAoFKFUAtrguTI-40">
          <mxGeometry x="-0.1913" y="-10" width="160" relative="1" as="geometry">
            <mxPoint x="150" y="310" as="sourcePoint" />
            <mxPoint x="310" y="310" as="targetPoint" />
            <mxPoint as="offset" />
          </mxGeometry>
        </mxCell>
        <mxCell id="7TQkR5zAoFKFUAtrguTI-46" value="" style="endArrow=none;html=1;edgeStyle=orthogonalEdgeStyle;entryX=0;entryY=0.5;entryDx=0;entryDy=0;" edge="1" parent="WIyWlLk6GJQsqaUBKTNV-1" target="7TQkR5zAoFKFUAtrguTI-65">
          <mxGeometry relative="1" as="geometry">
            <mxPoint x="160" y="240" as="sourcePoint" />
            <mxPoint x="355" y="319" as="targetPoint" />
            <Array as="points">
              <mxPoint x="220" y="240" />
              <mxPoint x="220" y="319" />
              <mxPoint x="350" y="319" />
            </Array>
          </mxGeometry>
        </mxCell>
        <mxCell id="7TQkR5zAoFKFUAtrguTI-47" value="parent" style="edgeLabel;resizable=0;html=1;align=left;verticalAlign=bottom;" connectable="0" vertex="1" parent="7TQkR5zAoFKFUAtrguTI-46">
          <mxGeometry x="-1" relative="1" as="geometry" />
        </mxCell>
        <mxCell id="7TQkR5zAoFKFUAtrguTI-48" value="child" style="edgeLabel;resizable=0;html=1;align=right;verticalAlign=bottom;" connectable="0" vertex="1" parent="7TQkR5zAoFKFUAtrguTI-46">
          <mxGeometry x="1" relative="1" as="geometry">
            <mxPoint x="-5" as="offset" />
          </mxGeometry>
        </mxCell>
        <mxCell id="7TQkR5zAoFKFUAtrguTI-49" value="" style="endArrow=none;html=1;edgeStyle=orthogonalEdgeStyle;exitX=1.021;exitY=0.231;exitDx=0;exitDy=0;exitPerimeter=0;entryX=0.3;entryY=1;entryDx=0;entryDy=0;entryPerimeter=0;" edge="1" parent="WIyWlLk6GJQsqaUBKTNV-1" source="7TQkR5zAoFKFUAtrguTI-9" target="7TQkR5zAoFKFUAtrguTI-66">
          <mxGeometry relative="1" as="geometry">
            <mxPoint x="330" y="390" as="sourcePoint" />
            <mxPoint x="410" y="331" as="targetPoint" />
          </mxGeometry>
        </mxCell>
        <mxCell id="7TQkR5zAoFKFUAtrguTI-50" value="parent" style="edgeLabel;resizable=0;html=1;align=left;verticalAlign=bottom;" connectable="0" vertex="1" parent="7TQkR5zAoFKFUAtrguTI-49">
          <mxGeometry x="-1" relative="1" as="geometry" />
        </mxCell>
        <mxCell id="7TQkR5zAoFKFUAtrguTI-51" value="child" style="edgeLabel;resizable=0;html=1;align=right;verticalAlign=bottom;" connectable="0" vertex="1" parent="7TQkR5zAoFKFUAtrguTI-49">
          <mxGeometry x="1" relative="1" as="geometry">
            <mxPoint x="-4" y="68.94" as="offset" />
          </mxGeometry>
        </mxCell>
        <mxCell id="7TQkR5zAoFKFUAtrguTI-52" value="Category" style="swimlane;fontStyle=0;childLayout=stackLayout;horizontal=1;startSize=26;fillColor=none;horizontalStack=0;resizeParent=1;resizeParentMax=0;resizeLast=0;collapsible=1;marginBottom=0;" vertex="1" parent="WIyWlLk6GJQsqaUBKTNV-1">
          <mxGeometry x="580" y="480" width="140" height="56" as="geometry" />
        </mxCell>
        <mxCell id="7TQkR5zAoFKFUAtrguTI-13" value="+ name: string" style="text;strokeColor=none;fillColor=none;align=left;verticalAlign=top;spacingLeft=4;spacingRight=4;overflow=hidden;rotatable=0;points=[[0,0.5],[1,0.5]];portConstraint=eastwest;" vertex="1" parent="7TQkR5zAoFKFUAtrguTI-52">
          <mxGeometry y="26" width="140" height="30" as="geometry" />
        </mxCell>
        <mxCell id="7TQkR5zAoFKFUAtrguTI-56" value="" style="endArrow=none;html=1;edgeStyle=orthogonalEdgeStyle;exitX=0;exitY=0.5;exitDx=0;exitDy=0;entryX=0.475;entryY=0.962;entryDx=0;entryDy=0;entryPerimeter=0;" edge="1" parent="WIyWlLk6GJQsqaUBKTNV-1" source="7TQkR5zAoFKFUAtrguTI-52" target="7TQkR5zAoFKFUAtrguTI-66">
          <mxGeometry relative="1" as="geometry">
            <mxPoint x="330" y="390" as="sourcePoint" />
            <mxPoint x="438" y="331" as="targetPoint" />
          </mxGeometry>
        </mxCell>
        <mxCell id="7TQkR5zAoFKFUAtrguTI-57" value="parent" style="edgeLabel;resizable=0;html=1;align=left;verticalAlign=bottom;" connectable="0" vertex="1" parent="7TQkR5zAoFKFUAtrguTI-56">
          <mxGeometry x="-1" relative="1" as="geometry">
            <mxPoint x="-50" as="offset" />
          </mxGeometry>
        </mxCell>
        <mxCell id="7TQkR5zAoFKFUAtrguTI-58" value="child" style="edgeLabel;resizable=0;html=1;align=right;verticalAlign=bottom;" connectable="0" vertex="1" parent="7TQkR5zAoFKFUAtrguTI-56">
          <mxGeometry x="1" relative="1" as="geometry">
            <mxPoint x="31.98" y="59" as="offset" />
          </mxGeometry>
        </mxCell>
        <mxCell id="7TQkR5zAoFKFUAtrguTI-59" value="" style="endArrow=none;html=1;edgeStyle=orthogonalEdgeStyle;exitX=0;exitY=0.5;exitDx=0;exitDy=0;entryX=1;entryY=0.5;entryDx=0;entryDy=0;" edge="1" parent="WIyWlLk6GJQsqaUBKTNV-1" source="7TQkR5zAoFKFUAtrguTI-17" target="7TQkR5zAoFKFUAtrguTI-65">
          <mxGeometry relative="1" as="geometry">
            <mxPoint x="330" y="290" as="sourcePoint" />
            <mxPoint x="489.96000000000004" y="306.98800000000006" as="targetPoint" />
            <Array as="points">
              <mxPoint x="550" y="319" />
              <mxPoint x="550" y="323" />
            </Array>
          </mxGeometry>
        </mxCell>
        <mxCell id="7TQkR5zAoFKFUAtrguTI-60" value="parent" style="edgeLabel;resizable=0;html=1;align=left;verticalAlign=bottom;" connectable="0" vertex="1" parent="7TQkR5zAoFKFUAtrguTI-59">
          <mxGeometry x="-1" relative="1" as="geometry">
            <mxPoint x="-40" as="offset" />
          </mxGeometry>
        </mxCell>
        <mxCell id="7TQkR5zAoFKFUAtrguTI-61" value="child" style="edgeLabel;resizable=0;html=1;align=right;verticalAlign=bottom;" connectable="0" vertex="1" parent="7TQkR5zAoFKFUAtrguTI-59">
          <mxGeometry x="1" relative="1" as="geometry">
            <mxPoint x="40" y="13.010000000000002" as="offset" />
          </mxGeometry>
        </mxCell>
        <mxCell id="7TQkR5zAoFKFUAtrguTI-62" value="AircraftInventory" style="swimlane;fontStyle=1;align=center;verticalAlign=top;childLayout=stackLayout;horizontal=1;startSize=26;horizontalStack=0;resizeParent=1;resizeParentMax=0;resizeLast=0;collapsible=1;marginBottom=0;" vertex="1" parent="WIyWlLk6GJQsqaUBKTNV-1">
          <mxGeometry x="345" y="276" width="160" height="86" as="geometry" />
        </mxCell>
        <mxCell id="7TQkR5zAoFKFUAtrguTI-64" value="" style="line;strokeWidth=1;fillColor=none;align=left;verticalAlign=middle;spacingTop=-1;spacingLeft=3;spacingRight=3;rotatable=0;labelPosition=right;points=[];portConstraint=eastwest;" vertex="1" parent="7TQkR5zAoFKFUAtrguTI-62">
          <mxGeometry y="26" width="160" height="8" as="geometry" />
        </mxCell>
        <mxCell id="7TQkR5zAoFKFUAtrguTI-65" value="+ Search(Id): Aircraft" style="text;strokeColor=none;fillColor=none;align=left;verticalAlign=top;spacingLeft=4;spacingRight=4;overflow=hidden;rotatable=0;points=[[0,0.5],[1,0.5]];portConstraint=eastwest;" vertex="1" parent="7TQkR5zAoFKFUAtrguTI-62">
          <mxGeometry y="34" width="160" height="26" as="geometry" />
        </mxCell>
        <mxCell id="7TQkR5zAoFKFUAtrguTI-66" value="+ ListAircraft(): [ ] Aircraft" style="text;strokeColor=none;fillColor=none;align=left;verticalAlign=top;spacingLeft=4;spacingRight=4;overflow=hidden;rotatable=0;points=[[0,0.5],[1,0.5]];portConstraint=eastwest;" vertex="1" parent="7TQkR5zAoFKFUAtrguTI-62">
          <mxGeometry y="60" width="160" height="26" as="geometry" />
        </mxCell>
      </root>
    </mxGraphModel>
  </diagram>
</mxfile>
